# xmcd
#
# Track frame offsets: 
#        150
#        15375
#        28772
#        45684
#        59769
#        75172
#        91897
#        109822
#        130897
#        152320
#        172720
#        187132
#        204606
#        218189
#        230922
#        243222
#        255904
#        269427
#        282497
#        295697
#        309126
#        321651
#        334585
#        346988
#
# Disc length: 4791 seconds
#
# Revision: 0
# Processed by: cddbd v1.5.2PL0 Copyright (c) Steve Scherf et al.
# Submitted via: ExactAudioCopy v0.99pb3
#
DISCID=5212b518
DTITLE=FairPlay - Linedance ABC
DYEAR=1900
DGENRE=Country
TTITLE0=Bogen Raus
TTITLE1=Was sie will
TTITLE2=Licht und Schatten
TTITLE3=Countrynight im Bürgerhaus
TTITLE4=Kein Dance ist wie Linedance
TTITLE5=Karussell
TTITLE6=SOS - Sommer ohne Stress
TTITLE7=Drachenflieger
TTITLE8=Musiker im Paradies
TTITLE9=Jede Mark tut weh
TTITLE10=Tegel Prison Blues
TTITLE11=Meine besten Lügen
TTITLE12=Bogen raus - Übungstempo
TTITLE13=Was sie will - Übungstempo
TTITLE14=Licht und Schatten - Übungstempo
TTITLE15=Countrynight im Bürgerhaus - Übungstempo
TTITLE16=Keine Dance ist wie Linedance - Übungstempo
TTITLE17=Karussell - Übungstempo
TTITLE18=SOS - Sommer ohne Stress - Übungstempo
TTITLE19=Drachenflieger - Übungstempo
TTITLE20=Musiker im Paradies - Übungstempo
TTITLE21=Jede Mark tut weh - Übungstempo
TTITLE22=Tegel Prison bLues - Übungstempo
TTITLE23=Meine besten Lügen - Übungstempo
EXTD=
EXTT0=
EXTT1=
EXTT2=
EXTT3=
EXTT4=
EXTT5=
EXTT6=
EXTT7=
EXTT8=
EXTT9=
EXTT10=
EXTT11=
EXTT12=
EXTT13=
EXTT14=
EXTT15=
EXTT16=
EXTT17=
EXTT18=
EXTT19=
EXTT20=
EXTT21=
EXTT22=
EXTT23=
PLAYORDER=
